<svg id="visual" viewBox="0 0 900 600" width="900" height="600" xmlns="http://www.w3.org/2000/svg" xmlns:xlink="http://www.w3.org/1999/xlink" version="1.1"><path d="M809 600L810.5 587.5C812 575 815 550 806 525C797 500 776 475 774.5 450C773 425 791 400 804.5 375C818 350 827 325 827 300C827 275 818 250 806 225C794 200 779 175 774.5 150C770 125 776 100 783.5 75C791 50 800 25 804.5 12.5L809 0L900 0L900 12.5C900 25 900 50 900 75C900 100 900 125 900 150C900 175 900 200 900 225C900 250 900 275 900 300C900 325 900 350 900 375C900 400 900 425 900 450C900 475 900 500 900 525C900 550 900 575 900 587.5L900 600Z" fill="#6198ff"></path><path d="M467 600L455 587.5C443 575 419 550 423.5 525C428 500 461 475 471.5 450C482 425 470 400 489.5 375C509 350 560 325 590 300C620 275 629 250 627.5 225C626 200 614 175 584 150C554 125 506 100 504.5 75C503 50 548 25 570.5 12.5L593 0L810 0L805.5 12.5C801 25 792 50 784.5 75C777 100 771 125 775.5 150C780 175 795 200 807 225C819 250 828 275 828 300C828 325 819 350 805.5 375C792 400 774 425 775.5 450C777 475 798 500 807 525C816 550 813 575 811.5 587.5L810 600Z" fill="#3c80ff"></path><path d="M350 600L339.5 587.5C329 575 308 550 309.5 525C311 500 335 475 344 450C353 425 347 400 360.5 375C374 350 407 325 426.5 300C446 275 452 250 452 225C452 200 446 175 417.5 150C389 125 338 100 339.5 75C341 50 395 25 422 12.5L449 0L594 0L571.5 12.5C549 25 504 50 505.5 75C507 100 555 125 585 150C615 175 627 200 628.5 225C630 250 621 275 591 300C561 325 510 350 490.5 375C471 400 483 425 472.5 450C462 475 429 500 424.5 525C420 550 444 575 456 587.5L468 600Z" fill="#0066ff"></path><path d="M179 600L167 587.5C155 575 131 550 126.5 525C122 500 137 475 146 450C155 425 158 400 146 375C134 350 107 325 95 300C83 275 86 250 98 225C110 200 131 175 138.5 150C146 125 140 100 134 75C128 50 122 25 119 12.5L116 0L450 0L423 12.5C396 25 342 50 340.5 75C339 100 390 125 418.5 150C447 175 453 200 453 225C453 250 447 275 427.5 300C408 325 375 350 361.5 375C348 400 354 425 345 450C336 475 312 500 310.5 525C309 550 330 575 340.5 587.5L351 600Z" fill="#0059dd"></path><path d="M0 600L0 587.5C0 575 0 550 0 525C0 500 0 475 0 450C0 425 0 400 0 375C0 350 0 325 0 300C0 275 0 250 0 225C0 200 0 175 0 150C0 125 0 100 0 75C0 50 0 25 0 12.5L0 0L117 0L120 12.5C123 25 129 50 135 75C141 100 147 125 139.5 150C132 175 111 200 99 225C87 250 84 275 96 300C108 325 135 350 147 375C159 400 156 425 147 450C138 475 123 500 127.5 525C132 550 156 575 168 587.5L180 600Z" fill="#004cbb"></path></svg>